<?xml version="1.0" standalone="no"?>
<!DOCTYPE svg PUBLIC "-//W3C//DTD SVG 20010904//EN"
 "http://www.w3.org/TR/2001/REC-SVG-20010904/DTD/svg10.dtd">
<svg version="1.0" xmlns="http://www.w3.org/2000/svg"
 width="694.000000pt" height="694.000000pt" viewBox="0 0 694.000000 694.000000"
 preserveAspectRatio="xMidYMid meet">
<metadata>
Created by potrace 1.14, written by Peter Selinger 2001-2017
</metadata>
<g transform="translate(0.000000,694.000000) scale(0.100000,-0.100000)"
fill="#000000" stroke="none">
<path d="M1294 6650 c-83 -33 -143 -104 -178 -212 -8 -24 -64 -198 -126 -388
-61 -190 -140 -433 -175 -540 -101 -310 -284 -875 -405 -1250 -61 -190 -122
-376 -135 -415 -98 -296 -256 -787 -263 -820 -12 -56 -6 -148 14 -212 26 -81
79 -149 174 -221 117 -88 123 -92 262 -193 68 -49 132 -95 143 -103 58 -43
844 -613 862 -626 25 -17 368 -267 528 -385 61 -44 121 -88 135 -97 14 -9 81
-58 150 -109 69 -51 145 -106 170 -124 69 -49 626 -455 795 -579 l150 -110 75
-4 75 -3 110 81 c61 44 121 88 135 98 42 29 774 560 785 569 6 5 134 98 285
207 151 110 311 226 355 258 90 67 858 626 949 691 32 23 71 51 87 62 243 172
564 413 594 446 20 23 49 67 64 98 24 51 26 67 26 176 l0 120 -113 345 c-156
475 -232 708 -362 1110 -134 413 -161 497 -201 615 -17 50 -32 97 -34 105 -2
8 -10 35 -18 60 -23 68 -142 433 -272 835 -65 198 -123 372 -131 386 -24 47
-84 100 -142 126 -50 22 -67 25 -135 20 -90 -6 -145 -33 -200 -97 -39 -46 -43
-56 -125 -310 -82 -253 -238 -735 -332 -1025 -43 -132 -127 -388 -185 -570
-59 -181 -109 -332 -111 -334 -7 -7 -2187 -2 -2194 6 -4 4 -26 67 -49 138 -46
144 -230 710 -312 960 -29 88 -54 165 -55 170 -1 6 -18 57 -37 115 -19 58 -83
254 -142 435 -59 182 -116 346 -125 366 -24 45 -75 95 -125 122 -59 30 -174
34 -241 7z m491 -1565 c65 -198 146 -448 181 -554 35 -107 62 -196 60 -198 -4
-5 -1237 -5 -1241 -1 -2 2 10 44 26 93 17 50 31 95 33 100 1 6 16 53 33 105
18 52 82 250 143 440 61 190 142 440 180 555 37 116 98 304 136 420 l68 210
132 -405 c73 -223 185 -567 249 -765z m3789 1094 c27 -84 135 -416 249 -769
64 -195 168 -516 232 -713 64 -197 114 -361 112 -364 -4 -3 -1038 -7 -1214 -4
l-33 1 14 38 c8 20 58 172 111 337 127 392 241 746 265 815 45 135 219 678
226 704 8 33 15 25 38 -45z m-3348 -2448 c109 -338 201 -620 224 -691 10 -30
43 -131 73 -225 30 -93 84 -260 120 -370 36 -110 113 -348 172 -530 59 -181
129 -397 156 -479 27 -82 47 -151 45 -154 -2 -2 -18 14 -34 35 -88 111 -207
264 -291 372 -51 67 -109 141 -127 164 -19 23 -38 47 -42 52 -4 6 -144 186
-311 400 -168 215 -327 419 -354 454 -28 36 -130 166 -227 290 -97 124 -216
278 -265 341 -49 63 -95 122 -102 130 -103 129 -356 457 -360 466 -3 9 137 12
616 12 l620 0 87 -267z m2234 254 c0 -7 -18 -66 -39 -131 -21 -65 -94 -288
-161 -494 -67 -206 -135 -415 -152 -465 -16 -49 -31 -97 -33 -105 -2 -8 -17
-55 -33 -105 -17 -49 -89 -270 -161 -490 -292 -901 -383 -1182 -394 -1212
l-11 -32 -17 52 c-10 29 -66 201 -124 382 -59 182 -119 368 -135 415 -16 47
-74 227 -130 400 -56 173 -108 333 -115 355 -8 22 -66 202 -130 400 -114 351
-181 557 -284 875 -28 85 -51 158 -51 161 0 3 443 6 985 6 770 0 985 -2 985
-12z m1593 1 c-4 -6 -102 -132 -218 -281 -116 -148 -342 -439 -503 -645 -161
-206 -298 -382 -305 -390 -7 -8 -93 -118 -191 -245 -99 -126 -297 -380 -440
-564 -144 -184 -298 -382 -344 -440 -113 -145 -122 -156 -122 -150 0 3 13 46
29 95 16 49 89 271 161 494 72 223 138 424 146 448 9 23 17 48 18 55 1 6 53
167 115 357 62 190 143 440 181 555 185 567 232 710 236 716 2 4 283 6 624 6
451 0 618 -3 613 -11z m-5388 -237 c21 -28 251 -323 272 -349 11 -14 262 -335
315 -404 63 -81 222 -285 246 -315 46 -59 332 -425 355 -455 22 -29 107 -138
130 -166 7 -8 35 -44 62 -80 27 -36 55 -72 62 -80 7 -8 42 -53 78 -100 37 -47
72 -92 78 -100 7 -8 28 -35 47 -60 19 -25 40 -52 47 -60 51 -63 241 -309 248
-320 5 -8 -13 1 -40 21 -28 20 -306 222 -620 450 -314 227 -574 417 -580 422
-5 4 -50 37 -100 72 -49 35 -94 68 -100 72 -5 5 -118 86 -250 182 -228 166
-396 288 -513 374 -85 62 -85 55 7 337 44 135 105 324 136 420 31 96 58 181
61 189 5 15 19 4 59 -50z m5751 -164 c37 -115 69 -212 69 -215 1 -3 32 -99 70
-214 55 -168 66 -213 59 -235 -9 -26 -66 -72 -301 -242 -118 -86 -1387 -1007
-1663 -1207 -80 -58 -176 -129 -215 -157 -98 -72 -104 -74 -69 -30 107 137
197 252 207 265 7 8 75 96 152 195 77 99 146 187 152 195 7 8 161 206 343 440
182 234 348 446 368 471 20 25 48 61 62 79 14 18 54 69 89 114 77 98 275 352
350 450 30 39 60 76 65 82 6 6 49 61 96 122 46 61 88 108 91 104 4 -4 38 -101
75 -217z"/>
</g>
</svg>
